<?xml version="1.0" encoding="utf-8"?>
<!-- Generator: Adobe Illustrator 19.2.1, SVG Export Plug-In . SVG Version: 6.00 Build 0)  -->
<svg version="1.1" id="Layer_1" xmlns="http://www.w3.org/2000/svg" xmlns:xlink="http://www.w3.org/1999/xlink" x="0px" y="0px"
	 viewBox="0 0 1844 426" style="enable-background:new 0 0 1844 426;" xml:space="preserve">
<style type="text/css">
	.st0{enable-background:new    ;}
	.st1{fill:#010101;}
	.st2{fill:#6C7071;}
	.st3{fill:#2C76AB;}
</style>
<g class="st0">
	<path class="st1" d="M41.7,188.3c0,7.2,1.2,13.4,3.7,18.5c2.5,5.1,5.9,9.3,10.3,12.5c4.4,3.3,9.5,5.6,15.2,7.1
		c5.7,1.5,11.9,2.2,18.6,2.2c7.2,0,13.4-0.8,18.5-2.5c5.1-1.7,9.2-3.8,12.4-6.5s5.5-5.7,6.9-9.1c1.4-3.4,2.1-6.9,2.1-10.4
		c0-7.2-1.6-12.5-4.9-16c-3.3-3.4-6.8-5.9-10.7-7.3c-6.7-2.5-14.5-4.8-23.4-7c-8.9-2.2-19.9-5.1-32.9-8.6
		c-8.1-2.1-14.8-4.9-20.2-8.3c-5.4-3.4-9.6-7.3-12.8-11.5c-3.2-4.2-5.4-8.7-6.7-13.5c-1.3-4.8-2-9.6-2-14.5c0-9.5,2-17.7,5.9-24.7
		c4-7,9.2-12.7,15.7-17.3c6.5-4.6,13.9-8,22.2-10.2c8.3-2.2,16.6-3.3,25.1-3.3c9.9,0,19.1,1.3,27.9,3.8c8.7,2.6,16.4,6.4,23,11.5
		c6.6,5.1,11.8,11.4,15.7,18.9c3.9,7.5,5.8,16.2,5.8,26h-33c-0.9-12.1-5-20.7-12.4-25.7c-7.4-5-16.8-7.5-28.3-7.5
		c-3.9,0-7.8,0.4-11.9,1.2c-4.1,0.8-7.7,2.1-11.1,4c-3.3,1.8-6.1,4.4-8.3,7.5c-2.2,3.2-3.3,7.1-3.3,11.9c0,6.7,2.1,11.9,6.2,15.7
		c4.1,3.8,9.5,6.6,16.2,8.6c0.7,0.2,3.5,0.9,8.3,2.2c4.8,1.3,10.3,2.8,16.2,4.4c6,1.6,11.8,3.1,17.6,4.6c5.7,1.5,9.8,2.6,12.3,3.3
		c6.2,1.9,11.5,4.6,16.1,7.9c4.6,3.3,8.4,7.2,11.5,11.5c3.1,4.3,5.4,8.9,6.9,13.9c1.5,4.9,2.2,9.9,2.2,14.8
		c0,10.6-2.2,19.6-6.5,27.1c-4.3,7.5-10,13.6-17,18.4c-7,4.8-15.1,8.2-24,10.4s-18.1,3.3-27.5,3.3c-10.7,0-20.9-1.3-30.4-4
		c-9.5-2.6-17.8-6.7-24.8-12.1c-7-5.5-12.7-12.5-16.9-21c-4.2-8.5-6.4-18.6-6.6-30.2H41.7z"/>
	<path class="st1" d="M241.6,62.6h34.9l86.1,138.9h0.5V62.6h31.4v188.5h-34.9l-85.8-138.6H273v138.6h-31.4V62.6z"/>
</g>
<g class="st0">
	<path class="st2" d="M702.3,196.8h-59.2l-19,51h34.5v7.1h-67.6v-7.1h25.7l68-183.6h4.3l65.2,183.6h25v7.1h-88.8v-7.1h30.2
		L702.3,196.8z M645.7,189.7h54.1l-26.3-74.7H673L645.7,189.7z"/>
	<path class="st2" d="M837,247.8V75.6h-28.8v-7.1h96.3c10.6,0,19.5,0.5,26.7,1.6c7.2,1.1,14.2,3.8,20.9,8.3
		c6.7,4.4,11.5,9.9,14.4,16.5c2.9,6.5,4.4,12.7,4.4,18.6c0,22.2-17,36.7-51,43.5v0.7c38.4,6.2,57.6,22.2,57.6,47.8
		c0,6.3-1.7,13-5.1,19.9c-3.4,7-8.9,13-16.4,18.1c-7.5,5.1-15.2,8.3-23,9.5c-7.8,1.3-17.7,1.9-29.5,1.9h-95.1v-7.1H837z M898.5,75.6
		H870v78.3h25.6c17.3,0,28.4-3.4,33.2-10.1c4.8-6.8,7.2-17.4,7.2-32c0-11.4-1.6-19.7-4.7-24.9c-3.2-5.2-7.2-8.4-12-9.5
		C914.5,76.2,907.5,75.6,898.5,75.6z M895.3,160.9H870v86.9h26.1c9.7,0,17.5-0.7,23.3-2.2c5.8-1.5,10.7-5.4,14.8-11.9
		c4.1-6.4,6.1-16.6,6.1-30.4c0-14.7-3.1-25.5-9.2-32.3C925,164.3,913,160.9,895.3,160.9z"/>
	<path class="st2" d="M1104.1,259.2c-24.1,0-44.6-10.1-61.4-30.3c-16.8-20.2-25.2-41.8-25.2-64.8c0-27.6,8.8-51.2,26.5-70.7
		c17.7-19.5,38.2-29.3,61.5-29.3c22,0,41.7,9.9,59.1,29.7c17.4,19.8,26.1,42.4,26.1,67.6c0,26-8.7,48.7-26.2,68.3
		C1147,249.4,1126.9,259.2,1104.1,259.2z M1104.7,71.3c-10.2,0-19.3,2.3-27.5,7c-8.1,4.7-13.6,12.8-16.5,24.4
		c-2.9,11.6-4.4,31.8-4.4,60.6c0,19.9,0.8,35.8,2.5,47.7c1.7,11.9,5.9,21.7,12.7,29.5c6.8,7.8,17.5,11.7,32,11.7
		c8.9,0,17.8-2.4,26.8-7.1s14.8-14,17.5-27.9c2.7-13.9,4.1-35.1,4.1-63.9c0-26-1.7-44-5.1-53.9c-3.4-9.9-8.8-17.1-16.3-21.5
		C1123.1,73.5,1114.5,71.3,1104.7,71.3z"/>
	<path class="st2" d="M1258.9,247.8V75.6h-30.4v-7.1h94.3v7.1H1292v172.2h30.7v7.1h-94.3v-7.1H1258.9z"/>
	<path class="st2" d="M1358.8,68.5h158.9l4.9,63.4h-7.1c-4.4-21.2-10.1-35.9-17.3-44.1c-7.2-8.2-16.6-12.2-28.3-12.2h-15.2v172.2
		h33.4v7.1h-99.7v-7.1h33.4V75.6h-15.2c-11.7,0-21.1,4.1-28.3,12.2c-7.2,8.2-13,22.8-17.3,44.1h-7.1L1358.8,68.5z"/>
	<path class="st2" d="M1584.3,247.8V75.6h-30.4v-7.1h94.3v7.1h-30.7v172.2h30.7v7.1h-94.3v-7.1H1584.3z"/>
	<path class="st2" d="M1824.3,254.9h-142.9v-7.1l107-172.2h-43.9c-16,0-27.2,3.3-33.5,9.8c-6.3,6.5-10.9,17.6-13.8,33.2h-6.5l2.9-50
		h133.7v5l-108.7,174.3h45.6c13.1,0,22.9-1.3,29.5-3.8c6.6-2.5,12.4-8.9,17.4-19c5-10.1,8.2-20.5,9.4-31.2h6.8L1824.3,254.9z"/>
</g>
<g class="st0">
	<path class="st2" d="M277.6,384.4v31.8h12.2v2.9h-37.7v-2.9h12v-69.9h-12v-2.9h39c8.8,0,15.4,2,19.9,5.9s6.7,8.7,6.7,14.4
		c0,5.9-2.2,10.8-6.7,14.8c-4.5,4-12,6-22.4,6H277.6z M277.6,346.3v35.2h7.3c3.8,0,7-0.3,9.5-1c2.5-0.6,4.7-2.3,6.5-5.1
		c1.8-2.7,2.7-7,2.7-12.7c0-5.1-0.8-8.8-2.4-11.2c-1.6-2.4-3.5-3.9-5.7-4.4c-2.2-0.5-4.9-0.8-8.1-0.8H277.6z"/>
	<path class="st2" d="M400.2,420.8c-9.8,0-18.1-4.1-24.9-12.3c-6.8-8.2-10.2-17-10.2-26.3c0-11.2,3.6-20.8,10.7-28.7
		c7.2-7.9,15.5-11.9,25-11.9c8.9,0,16.9,4,24,12.1c7.1,8,10.6,17.2,10.6,27.4c0,10.5-3.5,19.8-10.6,27.7
		C417.6,416.8,409.4,420.8,400.2,420.8z M400.4,344.5c-4.1,0-7.9,1-11.1,2.8c-3.3,1.9-5.5,5.2-6.7,9.9c-1.2,4.7-1.8,12.9-1.8,24.6
		c0,8.1,0.3,14.5,1,19.3c0.7,4.8,2.4,8.8,5.2,12s7.1,4.7,13,4.7c3.6,0,7.2-1,10.9-2.9c3.6-1.9,6-5.7,7.1-11.3
		c1.1-5.6,1.7-14.3,1.7-25.9c0-10.6-0.7-17.9-2.1-21.9c-1.4-4-3.6-6.9-6.6-8.7C407.9,345.4,404.4,344.5,400.4,344.5z"/>
	<path class="st2" d="M537.8,368.8l13.7,33.3l20.7-55.8h-11v-2.9h22v2.9h-7.8l-27.9,74.5h-2l-14.4-35l-14.1,35h-2.1l-30.3-74.5h-8.5
		v-2.9H555v2.9h-8.1L537.8,368.8z M521.1,402.8l8.3-20.9l-14.6-35.6h-16.8L521.1,402.8z M528.6,346.3l7.6,18.6l7.5-18.6H528.6z"/>
	<path class="st2" d="M654.2,346.3v32.4h6.8c2.4,0,4.4-0.2,6.1-0.7c1.7-0.5,3.2-1.7,4.5-3.8c1.3-2.1,2.1-5.3,2.3-9.7h2.9v32H674
		c-0.3-6.1-1.5-10.1-3.5-12c-2.1-1.9-5.2-2.9-9.4-2.9h-6.8v34.6h15.4c8.7,0,14.8-1.8,18.1-5.5c3.4-3.7,5.4-9.3,6-17h2.9l-0.7,25.3
		h-67.1v-2.9h12v-69.9h-12v-2.9h64.3l1.3,20.2h-2.9c-1-6.1-3-10.5-6-13.3c-3-2.7-8.1-4.1-15.2-4.1H654.2z"/>
	<path class="st2" d="M759.7,416.2v-69.9h-11.9v-2.9h41.5c5.4,0,9.9,0.5,13.3,1.4c3.5,0.9,6.5,2.9,9,5.8c2.5,3,3.8,6.3,3.8,10.2
		c0,4.8-1.8,8.7-5.5,11.6c-3.7,3-9.9,5.2-18.7,6.7v0.3c6.3,1.2,11.5,3.6,15.5,7.2c4,3.6,6.1,9.6,6.1,18.2c0,4.9,0.6,8,1.7,9.4
		c1.1,1.4,2.7,2.1,4.8,2.1c1.3,0,2.9-0.3,4.7-0.8v2.8c-3.3,1.1-6.4,1.7-9.5,1.7c-6.2,0-10.6-1.7-13.1-5.2c-2.6-3.5-3.8-6.8-3.7-10.2
		l0.2-9.6c0-3.3-1.1-6.6-3.2-9.9c-2.1-3.3-6.9-4.9-14.5-4.9h-7.1v35.9h11.9v2.9h-37.2v-2.9H759.7z M773.2,346.3v31.3h10.2
		c4.4,0,7.7-0.3,10-0.9s4.1-2.1,5.5-4.6c1.4-2.5,2.1-6.4,2.1-11.8c0-4.4-0.7-7.6-2.1-9.6c-1.4-2-3.1-3.3-5-3.8
		c-2-0.5-4.6-0.7-7.8-0.7H773.2z"/>
</g>
<g class="st0">
	<path class="st2" d="M1062.1,393.7h-12.8v-2.9h39.2v2.9h-10.9c0,9.7-3.1,16.6-9.3,20.8s-12.7,6.3-19.5,6.3
		c-9.9,0-18.1-3.9-24.7-11.8s-9.9-17.1-9.9-27.7c0-10.7,3.4-20,10.1-27.8c6.7-7.8,15.1-11.8,25.2-11.8c5.2,0,10.2,1.5,14.9,4.5
		c1.4,0.9,2.4,1.4,3,1.4c1.2,0,2.4-1.1,3.6-3.2h2.5l0.8,20.5h-2.9c-3.1-13.5-10.5-20.3-22.2-20.3c-6.1,0-10.5,1.4-13.3,4.1
		c-2.8,2.7-4.5,6.2-5.1,10.3c-0.6,4.2-0.9,10.1-0.9,17.8c0,13.9,0.5,23.1,1.4,27.6c0.9,4.5,2.8,7.9,5.7,10.2
		c2.9,2.3,6.4,3.4,10.5,3.4c3.3,0,6.3-0.7,8.8-2c2.6-1.4,4.2-3.4,4.9-6.1c0.7-2.7,1-6.7,1-12V393.7z"/>
	<path class="st2" d="M1153,416.2v-69.9h-11.9v-2.9h41.5c5.4,0,9.9,0.5,13.3,1.4c3.5,0.9,6.5,2.9,9,5.8c2.5,3,3.8,6.3,3.8,10.2
		c0,4.8-1.8,8.7-5.5,11.6c-3.7,3-9.9,5.2-18.7,6.7v0.3c6.3,1.2,11.5,3.6,15.5,7.2c4,3.6,6.1,9.6,6.1,18.2c0,4.9,0.6,8,1.7,9.4
		c1.1,1.4,2.7,2.1,4.8,2.1c1.3,0,2.9-0.3,4.7-0.8v2.8c-3.3,1.1-6.4,1.7-9.5,1.7c-6.2,0-10.6-1.7-13.1-5.2s-3.8-6.8-3.7-10.2l0.2-9.6
		c0-3.3-1.1-6.6-3.2-9.9c-2.1-3.3-6.9-4.9-14.5-4.9h-7.1v35.9h11.9v2.9h-37.2v-2.9H1153z M1166.4,346.3v31.3h10.2
		c4.4,0,7.7-0.3,10-0.9s4.1-2.1,5.5-4.6c1.4-2.5,2.1-6.4,2.1-11.8c0-4.4-0.7-7.6-2.1-9.6c-1.4-2-3.1-3.3-5-3.8
		c-2-0.5-4.6-0.7-7.8-0.7H1166.4z"/>
	<path class="st2" d="M1302.8,420.8c-9.8,0-18.1-4.1-24.9-12.3c-6.8-8.2-10.2-17-10.2-26.3c0-11.2,3.6-20.8,10.7-28.7
		c7.2-7.9,15.5-11.9,25-11.9c8.9,0,16.9,4,24,12.1c7.1,8,10.6,17.2,10.6,27.4c0,10.5-3.5,19.8-10.6,27.7S1312.1,420.8,1302.8,420.8z
		 M1303.1,344.5c-4.1,0-7.9,1-11.1,2.8c-3.3,1.9-5.5,5.2-6.7,9.9c-1.2,4.7-1.8,12.9-1.8,24.6c0,8.1,0.3,14.5,1,19.3
		c0.7,4.8,2.4,8.8,5.2,12c2.8,3.2,7.1,4.7,13,4.7c3.6,0,7.2-1,10.9-2.9c3.6-1.9,6-5.7,7.1-11.3s1.7-14.3,1.7-25.9
		c0-10.6-0.7-17.9-2.1-21.9c-1.4-4-3.6-6.9-6.6-8.7C1310.6,345.4,1307,344.5,1303.1,344.5z"/>
	<path class="st2" d="M1455.8,346.3h-12.4v-2.9h27v2.9h-11.9V392c0,6.6-0.5,11.5-1.5,14.7c-1,3.2-2.8,5.8-5.4,8
		c-2.6,2.1-5.8,3.7-9.4,4.7c-3.7,1-7.5,1.5-11.4,1.5c-8.3,0-14.3-1.3-18.2-3.9s-6.2-5.8-7.1-9.6s-1.3-8.9-1.3-15.3v-45.8h-10.9v-2.9
		h36.2v2.9h-11.9v44.5c0,6.1,0.3,10.9,0.8,14.4c0.6,3.5,2.1,6.4,4.6,8.7c2.5,2.3,6.4,3.5,11.8,3.5c4.4,0,8.3-0.9,11.7-2.7
		c3.5-1.8,5.9-4.2,7.2-7.2c1.4-3,2.1-8.6,2.1-16.8V346.3z"/>
	<path class="st2" d="M1548.6,384.4v31.8h12.2v2.9h-37.7v-2.9h12v-69.9h-12v-2.9h39c8.8,0,15.4,2,19.9,5.9c4.5,3.9,6.7,8.7,6.7,14.4
		c0,5.9-2.2,10.8-6.7,14.8c-4.5,4-12,6-22.4,6H1548.6z M1548.6,346.3v35.2h7.3c3.8,0,7-0.3,9.5-1c2.5-0.6,4.7-2.3,6.5-5.1
		c1.8-2.7,2.7-7,2.7-12.7c0-5.1-0.8-8.8-2.4-11.2c-1.6-2.4-3.5-3.9-5.7-4.4c-2.2-0.5-4.9-0.8-8.1-0.8H1548.6z"/>
</g>
<rect x="500.5" class="st3" width="21.3" height="315.4"/>
</svg>
